# xmcd CD database file
#
# Track frame offsets:
#	150
#	19257
#	32214
#	53809
#	70146
#	84883
#	97345
#	110826
#	120777
#	133829
#	144268
#	168165
#	183565
#	192644
#	207804
#	223019
#	236580
#	253129
#	264767
#	278277
#	301268
#	316134
#
# Disc length: 4442 seconds
#
# Revision: 0
# Processed by: cddbd v1.5.2PL0 Copyright (c) Steve Scherf et al.
# Submitted via: CDex 1.51
#
DISCID=37115816
DTITLE=Lorez Alexandria - The 60's Pzazz Sessions
DYEAR=2001
DGENRE=Jazz
TTITLE0=Didn't We
TTITLE1=Play Me The Blues
TTITLE2=Comet In The Sky
TTITLE3=Endless
TTITLE4=I Didn't See You
TTITLE5=Psychedlic Bag
TTITLE6=I'm Wishin'
TTITLE7=The One Who Loves You
TTITLE8=Nonchalantly
TTITLE9=Talk About Cozy
TTITLE10=Hey Jude
TTITLE11=Confessin' The Blues
TTITLE12=Deacon Jones' Daughter
TTITLE13=I Don't Want To Hear It Anymore
TTITLE14=It'll Never Be Free
TTITLE15=Just One More Chance
TTITLE16=Trust In Me
TTITLE17=Vibrations
TTITLE18=I've Got A Right To Cry
TTITLE19=My Way
TTITLE20=Santa Is Here
TTITLE21=Help Me
EXTD=YEAR: 2001
EXTT0=
EXTT1=
EXTT2=
EXTT3=
EXTT4=
EXTT5=
EXTT6=
EXTT7=
EXTT8=
EXTT9=
EXTT10=
EXTT11=
EXTT12=
EXTT13=
EXTT14=
EXTT15=
EXTT16=
EXTT17=
EXTT18=
EXTT19=
EXTT20=
EXTT21=
PLAYORDER=
